<?xml version="1.0" standalone="no"?>
<!DOCTYPE svg PUBLIC "-//W3C//DTD SVG 20010904//EN"
 "http://www.w3.org/TR/2001/REC-SVG-20010904/DTD/svg10.dtd">
<svg version="1.0" xmlns="http://www.w3.org/2000/svg"
 width="557.000000pt" height="292.000000pt" viewBox="0 0 557.000000 292.000000"
 preserveAspectRatio="xMidYMid meet">

<g transform="translate(0.000000,292.000000) scale(0.100000,-0.100000)"
fill="#000000" stroke="none">
<path d="M1495 2338 c-3 -7 -4 -456 -3 -998 l3 -985 208 -3 207 -2 0 380 0
380 180 0 c118 0 180 -4 180 -10 0 -6 -14 -38 -32 -72 -30 -59 -78 -113 -145
-165 l-33 -25 0 -229 0 -228 43 15 c91 32 198 94 257 148 8 8 36 31 61 52 99
83 219 279 259 422 50 180 52 440 6 615 -52 196 -143 349 -281 473 -151 136
-242 184 -414 220 -99 20 -144 24 -304 24 -141 0 -189 -3 -192 -12z m502 -450
c102 -50 181 -129 237 -238 70 -139 80 -130 -139 -130 l-185 0 0 200 c0 129 4
200 10 200 6 0 41 -15 77 -32z"/>
<path d="M3545 2344 c-118 -29 -162 -44 -237 -80 -48 -24 -90 -49 -95 -57 -4
-7 -31 -30 -58 -52 -108 -85 -196 -209 -256 -363 -50 -128 -65 -208 -74 -382
-7 -138 11 -336 34 -379 6 -11 11 -27 11 -36 0 -26 86 -201 135 -274 47 -70
128 -151 227 -228 84 -65 298 -139 368 -127 57 9 170 63 235 110 87 65 197
211 236 314 15 40 20 71 17 114 -4 52 -8 62 -38 86 -55 45 -171 99 -219 102
l-44 3 -58 -95 c-32 -52 -65 -109 -74 -126 -9 -17 -29 -44 -45 -59 l-29 -28
-57 23 c-71 29 -171 121 -213 195 -16 29 -40 91 -52 137 -18 73 -20 103 -17
243 4 139 8 169 30 226 35 95 74 156 135 216 60 59 92 78 146 88 51 10 75 -9
116 -86 18 -35 49 -85 68 -111 46 -64 71 -64 207 2 92 44 107 56 130 94 33 56
32 89 -2 148 -63 109 -182 260 -240 305 -73 55 -217 94 -287 77z"/>
<path d="M4205 2339 c-3 -8 -4 -457 -3 -999 l3 -985 275 0 c249 1 282 3 345
22 156 46 298 142 381 258 157 222 175 447 52 658 -26 45 -28 55 -28 165 0
128 -22 322 -47 417 -36 138 -153 309 -257 377 -28 18 -89 46 -136 62 -83 28
-92 29 -332 33 -203 4 -249 3 -253 -8z m486 -442 c61 -41 119 -175 145 -334
l7 -43 -117 0 -116 0 0 200 0 200 24 0 c12 0 38 -10 57 -23z m178 -798 c41
-15 51 -35 51 -108 0 -49 -4 -65 -24 -89 -41 -47 -154 -101 -248 -117 l-38 -6
0 166 0 165 114 0 c62 0 127 -5 145 -11z"/>
<path d="M1210 1882 c-14 -2 -29 -7 -35 -12 -5 -4 -26 -11 -45 -15 -19 -4 -51
-16 -71 -26 -20 -10 -39 -16 -41 -13 -3 2 -17 -7 -31 -20 -15 -14 -27 -22 -27
-19 0 3 -7 0 -15 -7 -8 -7 -15 -10 -15 -6 0 3 -18 -12 -41 -34 l-40 -39 -6
-321 c-4 -273 -8 -331 -24 -387 -32 -115 -98 -172 -182 -159 -49 8 -126 47
-170 86 -19 16 -37 30 -40 30 -3 0 -9 -13 -15 -28 -15 -43 -92 -160 -155 -234
-32 -36 -57 -68 -57 -71 0 -8 155 -132 192 -154 89 -51 148 -67 263 -67 107
-1 112 0 189 37 157 75 310 260 378 459 l32 93 4 456 c3 373 1 456 -10 455 -7
0 -24 -2 -38 -4z"/>
</g>
</svg>
